<?xml version="1.0" standalone="no"?>
<!DOCTYPE svg PUBLIC "-//W3C//DTD SVG 20010904//EN"
 "http://www.w3.org/TR/2001/REC-SVG-20010904/DTD/svg10.dtd">
<svg version="1.0" xmlns="http://www.w3.org/2000/svg"
 width="600.000000pt" height="600.000000pt" viewBox="0 0 600.000000 600.000000"
 preserveAspectRatio="xMidYMid meet">
<metadata>
Created by potrace 1.14, written by Peter Selinger 2001-2017
</metadata>
<g transform="translate(0.000000,600.000000) scale(0.100000,-0.100000)"
fill="#000000" stroke="none">
<path d="M835 5984 c-428 -75 -747 -398 -820 -828 -23 -134 -23 -4178 0 -4312
73 -435 394 -756 829 -829 134 -23 4178 -23 4312 0 435 73 756 394 829 829 23
134 23 4178 0 4312 -73 435 -394 756 -829 829 -129 22 -4197 21 -4321 -1z
m1489 -2061 c96 -24 147 -53 227 -133 132 -131 184 -281 159 -466 -14 -108
-39 -182 -84 -249 -74 -110 -168 -180 -282 -210 -60 -16 -274 -33 -274 -22 0
3 22 28 48 54 50 50 109 142 130 202 18 51 52 256 52 310 0 25 -11 96 -23 156
-29 138 -86 252 -158 319 -27 25 -49 50 -49 56 0 15 174 3 254 -17z m952 10
c10 -8 67 -117 351 -671 69 -136 153 -296 185 -356 32 -60 58 -120 58 -132 0
-12 -11 -49 -25 -81 -36 -86 -109 -275 -145 -380 -18 -51 -36 -93 -40 -93 -4
0 -47 78 -95 173 -48 94 -133 262 -190 372 -56 110 -155 304 -220 430 -65 127
-144 280 -175 340 -84 161 -200 392 -200 397 0 8 485 9 496 1z m1464 -73 c0
-44 0 -170 0 -280 0 -110 0 -461 0 -780 l0 -580 -207 0 -208 0 2 708 c1 389 2
776 2 859 l1 153 205 0 205 -1 0 -79z m-3002 -787 l2 -853 -205 0 -205 0 0
855 0 855 203 -2 202 -3 3 -852z m1186 -475 c56 -114 165 -250 257 -324 38
-30 69 -56 69 -57 0 -1 -169 -2 -375 -2 -206 0 -375 2 -375 5 0 3 13 14 29 25
112 79 259 262 319 398 12 26 23 47 26 47 3 0 25 -42 50 -92z"/>
</g>
</svg>
